<svg width="100" height="100" viewBox="0 0 100 100" fill="none" xmlns="http://www.w3.org/2000/svg">
<g clip-path="url(#clip0_3_475)">
<g filter="url(#filter0_d_3_475)">
<rect width="100" height="100" rx="13" fill="#BC48EA" fill-opacity="0.85" shape-rendering="crispEdges"/>
</g>
<path d="M86.9998 0C94.1795 0 99.9998 5.8203 99.9998 13V15H-0.000244141V13C-0.000244141 5.82038 5.82017 0.000131684 12.9998 0H86.9998Z" fill="#838383"/>
<path d="M30.9736 10.3963C30.903 10.3963 30.8388 10.3905 30.7808 10.3789C30.7229 10.3683 30.6797 10.3568 30.6513 10.3441L30.765 9.95698C30.8514 9.98016 30.9283 9.99017 30.9957 9.98701C31.0631 9.98385 31.1227 9.95856 31.1743 9.91116C31.227 9.86376 31.2733 9.78633 31.3133 9.67888L31.3718 9.51771L30.4838 7.05903H30.9894L31.6041 8.94254H31.6294L32.244 7.05903H32.7512L31.751 9.81003C31.7047 9.93644 31.6457 10.0434 31.5741 10.1308C31.5024 10.2193 31.4171 10.2857 31.3181 10.3299C31.2191 10.3741 31.1042 10.3963 30.9736 10.3963Z" fill="black" fill-opacity="0.8"/>
<path d="M28.7982 9.53351C28.6022 9.53351 28.4274 9.48347 28.2736 9.3834C28.1208 9.28227 28.0007 9.13848 27.9133 8.95202C27.8269 8.76451 27.7837 8.53961 27.7837 8.27731C27.7837 8.015 27.8274 7.79063 27.9149 7.60417C28.0034 7.41772 28.1245 7.27498 28.2783 7.17596C28.4321 7.07693 28.6064 7.02742 28.8013 7.02742C28.952 7.02742 29.0731 7.05271 29.1648 7.10327C29.2575 7.15278 29.3291 7.21072 29.3797 7.27708C29.4313 7.34345 29.4713 7.40191 29.4997 7.45248H29.5282V6.25H30.0006V9.4861H29.5392V9.10845H29.4997C29.4713 9.16007 29.4302 9.21906 29.3765 9.28543C29.3238 9.35179 29.2511 9.40973 29.1584 9.45924C29.0657 9.50875 28.9456 9.53351 28.7982 9.53351ZM28.9025 9.13057C29.0383 9.13057 29.1532 9.09476 29.2469 9.02313C29.3417 8.95044 29.4134 8.84984 29.4618 8.72132C29.5113 8.5928 29.5361 8.44322 29.5361 8.27256C29.5361 8.10402 29.5119 7.95654 29.4634 7.83013C29.4149 7.70372 29.3438 7.60522 29.2501 7.53464C29.1563 7.46407 29.0404 7.42878 28.9025 7.42878C28.7602 7.42878 28.6417 7.46565 28.5469 7.53939C28.4521 7.61312 28.3805 7.71373 28.332 7.84119C28.2846 7.96865 28.2609 8.11244 28.2609 8.27256C28.2609 8.43479 28.2851 8.58069 28.3336 8.71026C28.3821 8.83983 28.4537 8.94254 28.5485 9.01839C28.6444 9.09318 28.7623 9.13057 28.9025 9.13057Z" fill="black" fill-opacity="0.8"/>
<path d="M26.2688 9.48611V7.05903H26.7254V7.44458H26.7507C26.795 7.31396 26.8729 7.21125 26.9846 7.13646C27.0973 7.06061 27.2247 7.02269 27.367 7.02269C27.3965 7.02269 27.4312 7.02374 27.4712 7.02585C27.5123 7.02796 27.5445 7.03059 27.5676 7.03375V7.48567C27.5487 7.4804 27.515 7.47461 27.4665 7.46829C27.418 7.46091 27.3696 7.45723 27.3211 7.45723C27.2095 7.45723 27.1099 7.48093 27.0225 7.52833C26.9361 7.57468 26.8676 7.63947 26.8171 7.72269C26.7665 7.80485 26.7412 7.89861 26.7412 8.00395V9.48611H26.2688Z" fill="black" fill-opacity="0.8"/>
<path d="M24.4417 9.53983C24.2879 9.53983 24.1489 9.51139 24.0246 9.45451C23.9003 9.39657 23.8018 9.31282 23.7291 9.20326C23.6575 9.09371 23.6217 8.9594 23.6217 8.80033C23.6217 8.66339 23.648 8.55067 23.7007 8.46218C23.7533 8.3737 23.8244 8.30364 23.914 8.25203C24.0035 8.20041 24.1036 8.16143 24.2142 8.1351C24.3248 8.10876 24.4375 8.08875 24.5524 8.07505C24.6977 8.0582 24.8157 8.0445 24.9063 8.03397C24.9969 8.02238 25.0627 8.00395 25.1038 7.97867C25.1449 7.95338 25.1654 7.9123 25.1654 7.85541V7.84435C25.1654 7.70636 25.1265 7.59943 25.0485 7.52359C24.9716 7.44774 24.8568 7.40982 24.704 7.40982C24.545 7.40982 24.4196 7.44511 24.328 7.51569C24.2374 7.58521 24.1747 7.66264 24.1399 7.74797L23.6959 7.64684C23.7486 7.49936 23.8255 7.38032 23.9266 7.28973C24.0288 7.19808 24.1463 7.13172 24.279 7.09063C24.4117 7.0485 24.5513 7.02743 24.6977 7.02743C24.7946 7.02743 24.8973 7.03902 25.0059 7.06219C25.1154 7.08431 25.2176 7.1254 25.3124 7.18544C25.4083 7.24549 25.4867 7.33134 25.5478 7.443C25.6089 7.55361 25.6395 7.6974 25.6395 7.87438V9.48611H25.1781V9.15428H25.1591C25.1286 9.21538 25.0828 9.27542 25.0217 9.33442C24.9606 9.39341 24.8821 9.44239 24.7862 9.48137C24.6904 9.52034 24.5755 9.53983 24.4417 9.53983ZM24.5445 9.1606C24.6751 9.1606 24.7867 9.13479 24.8794 9.08318C24.9732 9.03156 25.0443 8.96414 25.0928 8.88092C25.1423 8.79664 25.167 8.70658 25.167 8.61072V8.29785C25.1502 8.31471 25.1175 8.33051 25.0691 8.34525C25.0217 8.35895 24.9674 8.37106 24.9063 8.3816C24.8452 8.39108 24.7857 8.40003 24.7277 8.40846C24.6698 8.41583 24.6214 8.42215 24.5824 8.42742C24.4907 8.43901 24.407 8.4585 24.3311 8.48589C24.2563 8.51328 24.1963 8.55278 24.151 8.6044C24.1068 8.65496 24.0846 8.72238 24.0846 8.80665C24.0846 8.92358 24.1278 9.01207 24.2142 9.07211C24.3006 9.13111 24.4107 9.1606 24.5445 9.1606Z" fill="black" fill-opacity="0.8"/>
<path d="M22.0767 9.53509C21.8491 9.53509 21.6506 9.48295 21.481 9.37866C21.3114 9.27437 21.1797 9.12847 21.0859 8.94096C20.9922 8.75345 20.9453 8.53434 20.9453 8.28363C20.9453 8.03186 20.9922 7.8117 21.0859 7.62314C21.1797 7.43457 21.3114 7.28815 21.481 7.18386C21.6506 7.07957 21.8491 7.02743 22.0767 7.02743C22.3042 7.02743 22.5028 7.07957 22.6724 7.18386C22.842 7.28815 22.9737 7.43457 23.0674 7.62314C23.1612 7.8117 23.2081 8.03186 23.2081 8.28363C23.2081 8.53434 23.1612 8.75345 23.0674 8.94096C22.9737 9.12847 22.842 9.27437 22.6724 9.37866C22.5028 9.48295 22.3042 9.53509 22.0767 9.53509ZM22.0783 9.13848C22.2257 9.13848 22.3479 9.0995 22.4449 9.02155C22.5418 8.9436 22.6134 8.83984 22.6598 8.71026C22.7072 8.58069 22.7309 8.43796 22.7309 8.28205C22.7309 8.1272 22.7072 7.98499 22.6598 7.85541C22.6134 7.72479 22.5418 7.61998 22.4449 7.54097C22.3479 7.46196 22.2257 7.42246 22.0783 7.42246C21.9297 7.42246 21.8065 7.46196 21.7085 7.54097C21.6116 7.61998 21.5394 7.72479 21.492 7.85541C21.4457 7.98499 21.4225 8.1272 21.4225 8.28205C21.4225 8.43796 21.4457 8.58069 21.492 8.71026C21.5394 8.83984 21.6116 8.9436 21.7085 9.02155C21.8065 9.0995 21.9297 9.13848 22.0783 9.13848Z" fill="black" fill-opacity="0.8"/>
<path d="M18.3069 9.4861V6.25H18.7793V7.45248H18.8078C18.8352 7.40191 18.8747 7.34345 18.9263 7.27708C18.9779 7.21072 19.0495 7.15278 19.1412 7.10327C19.2328 7.05271 19.354 7.02742 19.5046 7.02742C19.7006 7.02742 19.8754 7.07693 20.0292 7.17596C20.183 7.27498 20.3036 7.41772 20.3911 7.60417C20.4796 7.79063 20.5238 8.015 20.5238 8.27731C20.5238 8.53961 20.4801 8.76451 20.3927 8.95202C20.3052 9.13848 20.1851 9.28227 20.0324 9.3834C19.8796 9.48347 19.7053 9.53351 19.5094 9.53351C19.3619 9.53351 19.2413 9.50875 19.1475 9.45924C19.0548 9.40973 18.9821 9.35179 18.9295 9.28543C18.8768 9.21906 18.8362 9.16007 18.8078 9.10845H18.7683V9.4861H18.3069ZM18.7699 8.27256C18.7699 8.44322 18.7946 8.5928 18.8441 8.72132C18.8936 8.84984 18.9653 8.95044 19.059 9.02313C19.1528 9.09476 19.2676 9.13057 19.4035 9.13057C19.5447 9.13057 19.6626 9.09318 19.7574 9.01839C19.8523 8.94254 19.9239 8.83983 19.9723 8.71026C20.0219 8.58069 20.0466 8.43479 20.0466 8.27256C20.0466 8.11244 20.0224 7.96865 19.9739 7.84119C19.9265 7.71373 19.8549 7.61312 19.759 7.53939C19.6642 7.46565 19.5457 7.42878 19.4035 7.42878C19.2665 7.42878 19.1507 7.46407 19.0559 7.53464C18.9621 7.60522 18.891 7.70372 18.8425 7.83013C18.7941 7.95654 18.7699 8.10402 18.7699 8.27256Z" fill="black" fill-opacity="0.8"/>
<path d="M16.0647 8.04503V9.4861H15.5922V6.25H16.0584V7.45406H16.0884C16.1453 7.32343 16.2322 7.21967 16.3491 7.14277C16.466 7.06587 16.6188 7.02742 16.8073 7.02742C16.9738 7.02742 17.1192 7.06166 17.2435 7.13013C17.3688 7.1986 17.4657 7.30079 17.5342 7.43668C17.6037 7.57151 17.6385 7.74006 17.6385 7.94232V9.4861H17.166V7.9992C17.166 7.82117 17.1202 7.68318 17.0286 7.58521C16.9369 7.48619 16.8094 7.43668 16.6462 7.43668C16.5345 7.43668 16.4344 7.46038 16.3459 7.50778C16.2585 7.55519 16.1895 7.62471 16.1389 7.71636C16.0894 7.80695 16.0647 7.91651 16.0647 8.04503Z" fill="black" fill-opacity="0.8"/>
<path d="M15.0254 7.65158L14.5972 7.72742C14.5793 7.67265 14.5508 7.6205 14.5118 7.57099C14.4739 7.52148 14.4223 7.48092 14.357 7.44932C14.2917 7.41772 14.21 7.40192 14.1121 7.40192C13.9783 7.40192 13.8666 7.43194 13.7771 7.49199C13.6875 7.55098 13.6428 7.62735 13.6428 7.7211C13.6428 7.80222 13.6728 7.86753 13.7328 7.91704C13.7929 7.96655 13.8898 8.00711 14.0236 8.03871L14.4091 8.1272C14.6324 8.17881 14.7989 8.25835 14.9084 8.3658C15.018 8.47325 15.0728 8.61282 15.0728 8.78453C15.0728 8.9299 15.0306 9.05947 14.9464 9.17324C14.8631 9.28596 14.7467 9.37445 14.5972 9.4387C14.4486 9.50296 14.2764 9.53509 14.0805 9.53509C13.8087 9.53509 13.5869 9.47715 13.4152 9.36128C13.2435 9.24435 13.1382 9.07843 13.0992 8.86354L13.5559 8.79401C13.5843 8.91305 13.6428 9.00311 13.7312 9.06421C13.8197 9.12426 13.9351 9.15428 14.0773 9.15428C14.2321 9.15428 14.3559 9.12215 14.4486 9.05789C14.5413 8.99258 14.5877 8.91305 14.5877 8.81929C14.5877 8.74345 14.5592 8.67972 14.5024 8.6281C14.4465 8.57648 14.3607 8.5375 14.2448 8.51117L13.834 8.4211C13.6075 8.36948 13.44 8.28732 13.3315 8.1746C13.224 8.06189 13.1703 7.91915 13.1703 7.74639C13.1703 7.60312 13.2103 7.47776 13.2904 7.37032C13.3705 7.26287 13.4811 7.17912 13.6222 7.11907C13.7634 7.05798 13.9251 7.02743 14.1073 7.02743C14.3696 7.02743 14.5761 7.08431 14.7267 7.19808C14.8774 7.3108 14.9769 7.46196 15.0254 7.65158Z" fill="black" fill-opacity="0.8"/>
<path d="M11.3796 9.53983C11.2258 9.53983 11.0868 9.51139 10.9625 9.45451C10.8382 9.39657 10.7397 9.31282 10.667 9.20326C10.5953 9.09371 10.5595 8.9594 10.5595 8.80033C10.5595 8.66339 10.5859 8.55067 10.6385 8.46218C10.6912 8.3737 10.7623 8.30364 10.8518 8.25203C10.9414 8.20041 11.0415 8.16143 11.1521 8.1351C11.2627 8.10876 11.3754 8.08875 11.4902 8.07505C11.6356 8.0582 11.7536 8.0445 11.8442 8.03397C11.9348 8.02238 12.0006 8.00395 12.0417 7.97867C12.0828 7.95338 12.1033 7.9123 12.1033 7.85541V7.84435C12.1033 7.70636 12.0643 7.59943 11.9864 7.52359C11.9095 7.44774 11.7947 7.40982 11.6419 7.40982C11.4828 7.40982 11.3575 7.44511 11.2658 7.51569C11.1752 7.58521 11.1126 7.66264 11.0778 7.74797L10.6338 7.64684C10.6865 7.49936 10.7634 7.38032 10.8645 7.28973C10.9667 7.19808 11.0841 7.13172 11.2169 7.09063C11.3496 7.0485 11.4892 7.02743 11.6356 7.02743C11.7325 7.02743 11.8352 7.03902 11.9437 7.06219C12.0533 7.08431 12.1555 7.1254 12.2503 7.18544C12.3461 7.24549 12.4246 7.33134 12.4857 7.443C12.5468 7.55361 12.5773 7.6974 12.5773 7.87438V9.48611H12.116V9.15428H12.097C12.0664 9.21538 12.0206 9.27542 11.9595 9.33442C11.8984 9.39341 11.8199 9.44239 11.7241 9.48137C11.6282 9.52034 11.5134 9.53983 11.3796 9.53983ZM11.4823 9.1606C11.6129 9.1606 11.7246 9.13479 11.8173 9.08318C11.9111 9.03156 11.9822 8.96414 12.0306 8.88092C12.0801 8.79664 12.1049 8.70658 12.1049 8.61072V8.29785C12.088 8.31471 12.0554 8.33051 12.0069 8.34525C11.9595 8.35895 11.9053 8.37106 11.8442 8.3816C11.7831 8.39108 11.7236 8.40003 11.6656 8.40846C11.6077 8.41583 11.5592 8.42215 11.5202 8.42742C11.4286 8.43901 11.3448 8.4585 11.269 8.48589C11.1942 8.51328 11.1342 8.55278 11.0889 8.6044C11.0446 8.65496 11.0225 8.72238 11.0225 8.80665C11.0225 8.92358 11.0657 9.01207 11.1521 9.07211C11.2385 9.13111 11.3485 9.1606 11.4823 9.1606Z" fill="black" fill-opacity="0.8"/>
<path d="M8.54763 9.4861H7.5V6.25H8.58081C8.89789 6.25 9.1702 6.31479 9.39773 6.44436C9.62527 6.57287 9.79961 6.75775 9.92076 6.99898C10.043 7.23916 10.1041 7.52727 10.1041 7.86331C10.1041 8.20041 10.0424 8.4901 9.91918 8.73238C9.79698 8.97467 9.62001 9.16112 9.38825 9.29175C9.1565 9.42132 8.87629 9.4861 8.54763 9.4861ZM7.98826 9.05947H8.52076C8.76726 9.05947 8.97215 9.01312 9.13543 8.92042C9.29871 8.82666 9.42091 8.6913 9.50202 8.51432C9.58314 8.3363 9.62369 8.11929 9.62369 7.86331C9.62369 7.60944 9.58314 7.39401 9.50202 7.21704C9.42196 7.04006 9.3024 6.90575 9.14333 6.81411C8.98427 6.72246 8.78675 6.67663 8.55079 6.67663H7.98826V9.05947Z" fill="black" fill-opacity="0.8"/>
<rect x="7.5" y="20" width="21.25" height="28.75" rx="2" fill="url(#paint0_linear_3_475)" fill-opacity="0.7"/>
<rect x="22.5" y="68.75" width="58.75" height="10" rx="2" fill="url(#paint1_linear_3_475)" fill-opacity="0.7"/>
<rect x="57.5" y="22.5" width="33.75" height="17.5" rx="2" fill="#BF1C28" fill-opacity="0.7"/>
<rect x="36.25" y="43.75" width="41.25" height="17.5" rx="2" fill="black"/>
<rect x="36.25" y="43.75" width="41.25" height="17.5" rx="2" fill="url(#paint2_linear_3_475)"/>
</g>
<defs>
<filter id="filter0_d_3_475" x="-13.3" y="-13.3" width="126.6" height="126.6" filterUnits="userSpaceOnUse" color-interpolation-filters="sRGB">
<feFlood flood-opacity="0" result="BackgroundImageFix"/>
<feColorMatrix in="SourceAlpha" type="matrix" values="0 0 0 0 0 0 0 0 0 0 0 0 0 0 0 0 0 0 127 0" result="hardAlpha"/>
<feOffset/>
<feGaussianBlur stdDeviation="6.65"/>
<feComposite in2="hardAlpha" operator="out"/>
<feColorMatrix type="matrix" values="0 0 0 0 0 0 0 0 0 0 0 0 0 0 0 0 0 0 0.25 0"/>
<feBlend mode="normal" in2="BackgroundImageFix" result="effect1_dropShadow_3_475"/>
<feBlend mode="normal" in="SourceGraphic" in2="effect1_dropShadow_3_475" result="shape"/>
</filter>
<linearGradient id="paint0_linear_3_475" x1="8.125" y1="20.625" x2="26.875" y2="48.125" gradientUnits="userSpaceOnUse">
<stop stop-color="#00D2F3"/>
<stop offset="1" stop-color="#4FA3FF"/>
</linearGradient>
<linearGradient id="paint1_linear_3_475" x1="41.3968" y1="46.6198" x2="73.6032" y2="91.5052" gradientUnits="userSpaceOnUse">
<stop stop-color="#BB74FF"/>
<stop offset="1" stop-color="#721AB5"/>
</linearGradient>
<linearGradient id="paint2_linear_3_475" x1="-7.5" y1="-3.125" x2="75.625" y2="63.125" gradientUnits="userSpaceOnUse">
<stop stop-color="white" stop-opacity="0"/>
<stop offset="1" stop-color="#004018"/>
</linearGradient>
<clipPath id="clip0_3_475">
<rect width="100" height="100" fill="white"/>
</clipPath>
</defs>
</svg>
